<svg xmlns:xlink="http://www.w3.org/1999/xlink" xmlns="http://www.w3.org/2000/svg" width="150" height="121.875" viewBox="0 0 48 39"><g fill="none" transform="translate(0 -1)"><path fill="#6971E0" d="M26.7,35.45 C21.4600897,39.8556357 14.0015765,40.4500676 8.13,36.93 L0.68,39.4 C0.16,39.58 -0.12,39.3 0.05,38.77 L2.54,31.32 C-0.338684766,26.4802194 -0.48134093,20.4885968 2.16374921,15.5172991 C4.80883936,10.5460014 9.85771984,7.31665211 15.48,7 C12.1023142,12.0760246 11.4222074,18.4836122 13.6590928,24.1555722 C15.8959783,29.8275322 20.766743,34.0459887 26.7,35.45 Z"></path><path fill="#87BBFD" d="M44.95,25.35 C49.1072162,18.3681813 47.41409,9.38326398 41.0009076,4.39334106 C34.5877253,-0.596581864 25.4622882,-0.0292946341 19.7164968,5.7164968 C13.9707054,11.4622882 13.4034181,20.5877253 18.3933411,27.0009076 C23.383264,33.41409 32.3681813,35.1072162 39.35,30.95 L46.81,33.44 C47.33,33.61 47.61,33.33 47.44,32.81 L44.95,25.35 Z"></path><path fill="#6971E0" d="M24.79,19.58 C24.1504946,19.58 23.5595672,19.238828 23.2398145,18.685 C22.9200617,18.1311721 22.9200617,17.4488279 23.2398145,16.895 C23.5595672,16.341172 24.1504946,16 24.79,16 C25.7785897,16 26.5799999,16.8014103 26.5799999,17.79 C26.5799999,18.7785897 25.7785897,19.58 24.79,19.58 Z M30.79,19.58 C30.1504946,19.58 29.5595672,19.238828 29.2398145,18.685 C28.9200617,18.1311721 28.9200617,17.4488279 29.2398145,16.895 C29.5595672,16.341172 30.1504946,16 30.79,16 C31.7785897,16 32.5799999,16.8014103 32.5799999,17.79 C32.5799999,18.7785897 31.7785897,19.58 30.79,19.58 Z M36.79,19.58 C36.1504946,19.58 35.5595672,19.238828 35.2398145,18.685 C34.9200617,18.1311721 34.9200617,17.4488279 35.2398145,16.895 C35.5595672,16.341172 36.1504946,16 36.79,16 C37.7785897,16 38.5799999,16.8014103 38.5799999,17.79 C38.5799999,18.7785897 37.7785897,19.58 36.79,19.58 Z"></path></g></svg>