<svg xmlns="http://www.w3.org/2000/svg" xmlns:xlink="http://www.w3.org/1999/xlink" version="1.1" width="1000" height="1000" viewBox="0 0 1000 1000" xml:space="preserve">
<desc>Created with Fabric.js 3.5.0</desc>
<defs>
</defs>
<rect x="0" y="0" width="100%" height="100%" fill="#ffffff"/>
<g transform="matrix(15.576 0 0 15.576 500.0011 500.0011)" id="322953">
<path style="stroke: none; stroke-width: 1; stroke-dasharray: none; stroke-linecap: butt; stroke-dashoffset: 0; stroke-linejoin: miter; stroke-miterlimit: 4; is-custom-font: none; font-file-url: none; fill: rgb(226,226,226); fill-rule: nonzero; opacity: 1;" vector-effect="non-scaling-stroke" transform=" translate(-29.1825, -29.1825)" d="M 57.863 26.632 l -8.681 -8.061 V 5.365 h -10 v 3.921 L 29.182 0 L 0.502 26.632 c -0.404 0.376 -0.428 1.009 -0.052 1.414 c 0.375 0.404 1.008 0.427 1.414 0.052 l 3.319 -3.082 v 33.349 h 16 h 16 h 16 V 25.015 l 3.319 3.082 c 0.192 0.179 0.437 0.267 0.681 0.267 c 0.269 0 0.536 -0.107 0.732 -0.319 C 58.291 27.641 58.267 27.008 57.863 26.632 z M 41.182 7.365 h 6 v 9.349 l -6 -5.571 V 7.365 z M 23.182 56.365 V 35.302 c 0 -0.517 0.42 -0.937 0.937 -0.937 h 10.126 c 0.517 0 0.937 0.42 0.937 0.937 v 21.063 H 23.182 z M 51.182 56.365 h -14 V 35.302 c 0 -1.62 -1.317 -2.937 -2.937 -2.937 H 24.119 c -1.62 0 -2.937 1.317 -2.937 2.937 v 21.063 h -14 V 23.158 l 22 -20.429 l 14.28 13.26 l 5.72 5.311 v 0 l 2 1.857 V 56.365 z" stroke-linecap="round"/>
</g>
</svg>