<svg xmlns="http://www.w3.org/2000/svg" xmlns:xlink="http://www.w3.org/1999/xlink" version="1.1" width="1000" height="1000" viewBox="0 0 1000 1000" xml:space="preserve">
<desc>Created with Fabric.js 3.5.0</desc>
<defs>
</defs>
<rect x="0" y="0" width="100%" height="100%" fill="#ffffff"/>
<g transform="matrix(1.8527 0 0 1.8527 499.9944 499.9952)" id="828963">
<path style="stroke: none; stroke-width: 1; stroke-dasharray: none; stroke-linecap: butt; stroke-dashoffset: 0; stroke-linejoin: miter; stroke-miterlimit: 4; is-custom-font: none; font-file-url: none; fill: rgb(67,97,238); fill-rule: nonzero; opacity: 1;" vector-effect="non-scaling-stroke" transform=" translate(-349.7467, -279.7519)" d="m 556.65 104.9 c -24.637 -24.574 -58.012 -38.375 -92.809 -38.375 s -68.172 13.801 -92.805 38.375 l -21.039 21.035 l -21.039 -21.039 v 0.003907 c -24.566 -24.832 -58.02 -38.848 -92.949 -38.941 c -34.934 -0.09375 -68.461 13.742 -93.16 38.441 c -24.699 24.703 -38.535 58.23 -38.441 93.16 c 0.09375 34.93 14.105 68.383 38.938 92.953 l 200.46 200.47 h 0.003906 c 1.6406 1.6406 3.8633 2.5625 6.1875 2.5625 c 2.3203 0 4.543 -0.92188 6.1836 -2.5625 l 200.46 -200.47 h 0.003907 c 24.613 -24.613 38.441 -58 38.441 -92.809 s -13.828 -68.191 -38.441 -92.805 z m -12.375 173.24 l -194.28 194.29 l -194.28 -194.29 c -28.656 -28.75 -39.816 -70.594 -29.289 -109.8 c 10.527 -39.203 41.152 -69.824 80.355 -80.355 c 39.203 -10.527 81.047 0.63281 109.8 29.289 l 27.227 27.227 h -0.003906 c 3.418 3.4141 8.957 3.4141 12.375 0 l 27.227 -27.227 h -0.003906 c 28.754 -28.656 70.598 -39.816 109.8 -29.289 c 39.203 10.531 69.828 41.152 80.355 80.355 c 10.527 39.207 -0.63281 81.051 -29.289 109.8 z m -134.59 32.07 c -4.1094 -18.195 -16.297 -33.523 -33.094 -41.629 c -16.801 -8.1055 -36.379 -8.1055 -53.18 0 c -16.797 8.1055 -28.984 23.434 -33.094 41.629 c -9.3945 4.7852 -16.125 13.562 -18.309 23.883 c -2.1875 10.316 0.40625 21.066 7.0547 29.254 c 6.6484 8.1836 16.641 12.93 27.188 12.906 c 3.3555 0 6.6953 -0.50391 9.9023 -1.4883 c 10.027 6.6758 21.805 10.238 33.848 10.238 s 23.82 -3.5625 33.848 -10.238 c 3.207 0.98438 6.5469 1.4883 9.9023 1.4883 c 10.547 0.023438 20.539 -4.7227 27.188 -12.906 c 6.6484 -8.1875 9.2422 -18.938 7.0547 -29.254 c -2.1836 -10.32 -8.9141 -19.098 -18.309 -23.883 z m -23.395 46.793 c -3.0078 -1.4258 -6.5664 -1.0234 -9.1758 1.043 c -7.7578 6.0156 -17.297 9.2773 -27.113 9.2773 s -19.355 -3.2617 -27.113 -9.2773 c -1.5469 -1.2227 -3.457 -1.8906 -5.4297 -1.8906 c -1.2969 0 -2.5781 0.28906 -3.7461 0.84766 c -4.3477 2.0859 -9.3633 2.2734 -13.855 0.52344 c -4.4922 -1.75 -8.0586 -5.2852 -9.8477 -9.7617 c -1.7891 -4.4766 -1.6406 -9.4961 0.40625 -13.859 c 2.0508 -4.3633 5.8164 -7.6836 10.402 -9.168 c 3.1602 -1.043 5.4531 -3.793 5.918 -7.0859 c 1.957 -14.039 10.605 -26.254 23.195 -32.77 c 12.59 -6.5117 27.555 -6.5117 40.145 0 c 12.59 6.5156 21.238 18.73 23.195 32.77 c 0.46484 3.293 2.7578 6.043 5.918 7.0859 c 4.5859 1.4883 8.3477 4.8086 10.395 9.1719 c 2.043 4.3633 2.1914 9.3789 0.40234 13.855 c -1.7891 4.4727 -5.3516 8.0078 -9.8438 9.7578 c -4.4883 1.75 -9.5039 1.5625 -13.852 -0.51953 z m -71.289 -112 c 14.719 0 26.25 -15.371 26.25 -35 s -11.531 -35 -26.25 -35 s -26.25 15.371 -26.25 35 s 11.531 35 26.25 35 z m 0 -52.5 c 3.5664 0 8.75 6.8203 8.75 17.5 s -5.1836 17.5 -8.75 17.5 s -8.75 -6.8203 -8.75 -17.5 s 5.1836 -17.5 8.75 -17.5 z m -26.25 70 c 0 -19.629 -11.531 -35 -26.25 -35 s -26.25 15.371 -26.25 35 s 11.531 35 26.25 35 s 26.25 -15.371 26.25 -35 z m -26.25 17.5 c -3.5664 0 -8.75 -6.8203 -8.75 -17.5 s 5.1836 -17.5 8.75 -17.5 s 8.75 6.8203 8.75 17.5 s -5.1836 17.5 -8.75 17.5 z m 122.5 -35 c 14.719 0 26.25 -15.371 26.25 -35 s -11.531 -35 -26.25 -35 s -26.25 15.371 -26.25 35 s 11.531 35 26.25 35 z m 0 -52.5 c 3.5664 0 8.75 6.8203 8.75 17.5 s -5.1836 17.5 -8.75 17.5 s -8.75 -6.8203 -8.75 -17.5 s 5.1836 -17.5 8.75 -17.5 z m 52.5 35 c -14.719 0 -26.25 15.371 -26.25 35 s 11.531 35 26.25 35 s 26.25 -15.371 26.25 -35 s -11.531 -35 -26.25 -35 z m 0 52.5 c -3.5664 0 -8.75 -6.8203 -8.75 -17.5 s 5.1836 -17.5 8.75 -17.5 s 8.75 6.8203 8.75 17.5 s -5.1836 17.5 -8.75 17.5 z" stroke-linecap="round"/>
</g>
</svg>